<svg id="visual" viewBox="0 0 900 600" width="900" height="600" xmlns="http://www.w3.org/2000/svg" xmlns:xlink="http://www.w3.org/1999/xlink" version="1.1"><rect x="0" y="0" width="900" height="600" fill="#001220"></rect><path d="M0 393L21.5 396C43 399 86 405 128.8 409.3C171.7 413.7 214.3 416.3 257.2 415.8C300 415.3 343 411.7 385.8 412.3C428.7 413 471.3 418 514.2 423.8C557 429.7 600 436.3 642.8 436C685.7 435.7 728.3 428.3 771.2 427.7C814 427 857 433 878.5 436L900 439L900 601L878.5 601C857 601 814 601 771.2 601C728.3 601 685.7 601 642.8 601C600 601 557 601 514.2 601C471.3 601 428.7 601 385.8 601C343 601 300 601 257.2 601C214.3 601 171.7 601 128.8 601C86 601 43 601 21.5 601L0 601Z" fill="#fa7268"></path><path d="M0 434L21.5 434C43 434 86 434 128.8 435.5C171.7 437 214.3 440 257.2 442C300 444 343 445 385.8 443.3C428.7 441.7 471.3 437.3 514.2 441.3C557 445.3 600 457.7 642.8 460.8C685.7 464 728.3 458 771.2 455.2C814 452.3 857 452.7 878.5 452.8L900 453L900 601L878.5 601C857 601 814 601 771.2 601C728.3 601 685.7 601 642.8 601C600 601 557 601 514.2 601C471.3 601 428.7 601 385.8 601C343 601 300 601 257.2 601C214.3 601 171.7 601 128.8 601C86 601 43 601 21.5 601L0 601Z" fill="#ef5f67"></path><path d="M0 477L21.5 477.3C43 477.7 86 478.3 128.8 482.7C171.7 487 214.3 495 257.2 498.5C300 502 343 501 385.8 497.7C428.7 494.3 471.3 488.7 514.2 488.3C557 488 600 493 642.8 494.8C685.7 496.7 728.3 495.3 771.2 493.3C814 491.3 857 488.7 878.5 487.3L900 486L900 601L878.5 601C857 601 814 601 771.2 601C728.3 601 685.7 601 642.8 601C600 601 557 601 514.2 601C471.3 601 428.7 601 385.8 601C343 601 300 601 257.2 601C214.3 601 171.7 601 128.8 601C86 601 43 601 21.5 601L0 601Z" fill="#e34c67"></path><path d="M0 529L21.5 524.8C43 520.7 86 512.3 128.8 509.7C171.7 507 214.3 510 257.2 517.2C300 524.3 343 535.7 385.8 538.7C428.7 541.7 471.3 536.3 514.2 533.8C557 531.3 600 531.7 642.8 530.2C685.7 528.7 728.3 525.3 771.2 521.3C814 517.3 857 512.7 878.5 510.3L900 508L900 601L878.5 601C857 601 814 601 771.2 601C728.3 601 685.7 601 642.8 601C600 601 557 601 514.2 601C471.3 601 428.7 601 385.8 601C343 601 300 601 257.2 601C214.3 601 171.7 601 128.8 601C86 601 43 601 21.5 601L0 601Z" fill="#d53867"></path><path d="M0 559L21.5 559.8C43 560.7 86 562.3 128.8 560.5C171.7 558.7 214.3 553.3 257.2 550.2C300 547 343 546 385.8 550.7C428.7 555.3 471.3 565.7 514.2 569.3C557 573 600 570 642.8 570.3C685.7 570.7 728.3 574.3 771.2 572.7C814 571 857 564 878.5 560.5L900 557L900 601L878.5 601C857 601 814 601 771.2 601C728.3 601 685.7 601 642.8 601C600 601 557 601 514.2 601C471.3 601 428.7 601 385.8 601C343 601 300 601 257.2 601C214.3 601 171.7 601 128.8 601C86 601 43 601 21.5 601L0 601Z" fill="#c62368"></path></svg>